<svg width="24" height="38" viewBox="0 0 24 38" fill="none" xmlns="http://www.w3.org/2000/svg">
<path d="M16.9928 6.37323H15.6624C15.4809 6.37323 15.3298 6.52284 15.3298 6.70236V15.4394V15.4693C15.3298 17.2945 13.8482 18.7606 12.0038 18.7606C10.1594 18.7606 8.6778 17.2945 8.6778 15.4693V15.4394V6.70236C8.6778 6.52284 8.52661 6.37323 8.3452 6.37323H7.0148C6.83339 6.37323 6.68221 6.52284 6.68221 6.70236V15.4693C6.68221 18.3417 9.01039 20.6756 11.9131 20.7354H12.034H12.155C15.0274 20.6756 17.3858 18.3417 17.3858 15.4693V6.70236C17.3556 6.52284 17.2044 6.37323 16.9928 6.37323Z" fill="black"/>
<path d="M23.4633 0.119686H0.574491C0.332601 0.119686 0.151184 0.299214 0.151184 0.538584V18.1323V20.1969V37.5811C0.151184 37.8205 0.332601 38 0.574491 38H23.4633C23.7052 38 23.8866 37.8205 23.8866 37.5811V20.1969V18.1323V0.538584C23.8866 0.299214 23.7052 0.119686 23.4633 0.119686ZM2.0863 2.45354V2.2441C2.0863 2.12441 2.17701 2.00473 2.32819 2.00473H2.53985H21.5584H21.7701C21.891 2.00473 22.012 2.09449 22.012 2.2441V2.45354V19.389L12.3666 28.9339L12.2154 29.0835C12.1247 29.1732 11.9735 29.1732 11.8828 29.0835L11.7317 28.9339L2.0863 19.389V2.45354ZM21.9515 35.6661V35.8756C21.9515 35.9953 21.8608 36.115 21.7096 36.115H21.498H2.50961H2.29796C2.17701 36.115 2.05607 36.0252 2.05607 35.8756V35.6661V22.0819L11.7014 31.6268C11.8526 31.7764 12.1247 31.7764 12.3061 31.6268L21.9515 22.0819V35.6661Z" fill="black"/>
</svg>
